<svg width="23" height="22" viewBox="0 0 23 22" fill="none" xmlns="http://www.w3.org/2000/svg">
<g id="vuesax/linear/copy">
<g id="copy">
<path id="Vector" d="M15.4883 11.7565V15.5747C15.4883 18.7565 14.2155 20.0293 11.0337 20.0293H7.21553C4.03371 20.0293 2.76099 18.7565 2.76099 15.5747V11.7565C2.76099 8.57473 4.03371 7.302 7.21553 7.302H11.0337C14.2155 7.302 15.4883 8.57473 15.4883 11.7565Z" stroke="white" stroke-width="1.36364" stroke-linecap="round" stroke-linejoin="round"/>
<path id="Vector_2" d="M20.9427 6.30196V10.1201C20.9427 13.302 19.67 14.5747 16.4882 14.5747H15.4882V11.7565C15.4882 8.57468 14.2155 7.30196 11.0336 7.30196H8.21545V6.30196C8.21545 3.12014 9.48818 1.84741 12.67 1.84741H16.4882C19.67 1.84741 20.9427 3.12014 20.9427 6.30196Z" stroke="white" stroke-width="1.36364" stroke-linecap="round" stroke-linejoin="round"/>
</g>
</g>
</svg>
