<svg width="30" height="30" viewBox="0 0 30 30" fill="none" xmlns="http://www.w3.org/2000/svg">
<g id="vuesax/linear/tag-2">
<g id="tag-2">
<path id="Vector" d="M6.03376 19.0865L11.3632 24.4159C13.5514 26.6042 17.1043 26.6042 19.3043 24.4159L24.4691 19.2512C26.6573 17.063 26.6573 13.51 24.4691 11.31L19.1279 5.99239C18.0102 4.87475 16.4691 4.27475 14.8926 4.3571L9.01023 4.63945C6.65729 4.74534 4.7867 6.61592 4.66905 8.9571L4.3867 14.8395C4.31611 16.4277 4.91611 17.9689 6.03376 19.0865Z" stroke="#F26C36" stroke-width="1.17647" stroke-linecap="round" stroke-linejoin="round"/>
<path id="Vector_2" d="M12.3047 15.2041C13.9291 15.2041 15.2459 13.8873 15.2459 12.263C15.2459 10.6386 13.9291 9.32178 12.3047 9.32178C10.6803 9.32178 9.36353 10.6386 9.36353 12.263C9.36353 13.8873 10.6803 15.2041 12.3047 15.2041Z" stroke="#F26C36" stroke-width="1.17647" stroke-linecap="round"/>
<path id="Vector_3" d="M16.4221 21.0865L21.128 16.3806" stroke="#F26C36" stroke-width="1.17647" stroke-miterlimit="10" stroke-linecap="round" stroke-linejoin="round"/>
</g>
</g>
</svg>
