<svg width="16" height="16" viewBox="0 0 16 16" fill="none" xmlns="http://www.w3.org/2000/svg">
<g id="Upload">
<path id="Vector" d="M3.99247 14.4309L3.87515 15.1716H3.87515L3.99247 14.4309ZM0.87527 11.3137L1.61604 11.1964L0.87527 11.3137ZM14.2829 11.3137L15.0237 11.431V11.431L14.2829 11.3137ZM11.1657 14.4309L11.2831 15.1716H11.2831L11.1657 14.4309ZM14.1791 6.52662C13.9303 6.19542 13.4601 6.12861 13.1289 6.37737C12.7978 6.62614 12.7309 7.09629 12.9797 7.42748L14.1791 6.52662ZM2.1785 7.42748C2.42727 7.09629 2.36045 6.62614 2.02926 6.37737C1.69807 6.12861 1.22792 6.19542 0.979152 6.52662L2.1785 7.42748ZM6.8291 11.4771C6.8291 11.8913 7.16489 12.2271 7.5791 12.2271C7.99332 12.2271 8.3291 11.8913 8.3291 11.4771H6.8291ZM3.99142 3.51108C3.73407 3.83565 3.78856 4.30739 4.11313 4.56473C4.4377 4.82208 4.90944 4.76759 5.16679 4.44302L3.99142 3.51108ZM5.62749 2.65482L5.0398 2.18885V2.18885L5.62749 2.65482ZM9.53072 2.65482L10.1184 2.18885L9.53072 2.65482ZM9.99142 4.44302C10.2488 4.76759 10.7205 4.82208 11.0451 4.56473C11.3696 4.30739 11.4241 3.83565 11.1668 3.51108L9.99142 4.44302ZM7.3911 0.991968L7.2731 0.25131L7.2731 0.25131L7.3911 0.991968ZM7.7671 0.991968L7.88511 0.25131L7.88511 0.25131L7.7671 0.991968ZM13.5791 9.22705V9.97705H15.0791V9.22705H13.5791ZM9.8291 13.727H5.3291V15.227H9.8291V13.727ZM1.5791 9.97705V9.22705H0.0791016V9.97705H1.5791ZM5.3291 13.727C4.60369 13.727 4.3283 13.7247 4.1098 13.6901L3.87515 15.1716C4.23964 15.2294 4.66101 15.227 5.3291 15.227V13.727ZM0.0791016 9.97705C0.0791016 10.6451 0.0767739 11.0665 0.134504 11.431L1.61604 11.1964C1.58143 10.9778 1.5791 10.7025 1.5791 9.97705H0.0791016ZM4.1098 13.6901C2.82612 13.4868 1.81935 12.48 1.61604 11.1964L0.134504 11.431C0.439476 13.3565 1.94963 14.8667 3.87515 15.1716L4.1098 13.6901ZM13.5791 9.97705C13.5791 10.7025 13.5768 10.9779 13.5422 11.1964L15.0237 11.431C15.0814 11.0665 15.0791 10.6451 15.0791 9.97705H13.5791ZM9.8291 15.227C10.4972 15.227 10.9186 15.2294 11.2831 15.1716L11.0484 13.6901C10.8299 13.7247 10.5545 13.727 9.8291 13.727V15.227ZM13.5422 11.1964C13.3389 12.48 12.3321 13.4868 11.0484 13.6901L11.2831 15.1716C13.2086 14.8667 14.7187 13.3565 15.0237 11.431L13.5422 11.1964ZM15.0791 9.22705C15.0791 8.21487 14.744 7.27878 14.1791 6.52662L12.9797 7.42748C13.3563 7.92881 13.5791 8.55082 13.5791 9.22705H15.0791ZM1.5791 9.22705C1.5791 8.55082 1.80194 7.92881 2.1785 7.42748L0.979152 6.52662C0.414179 7.27878 0.0791016 8.21487 0.0791016 9.22705H1.5791ZM8.3291 11.4771V1.72705H6.8291V11.4771H8.3291ZM5.16679 4.44302L6.21517 3.12079L5.0398 2.18885L3.99142 3.51108L5.16679 4.44302ZM8.94303 3.12079L9.99142 4.44302L11.1668 3.51108L10.1184 2.18885L8.94303 3.12079ZM6.21517 3.12079C6.64459 2.57921 6.92756 2.22418 7.1631 1.98773C7.39531 1.75462 7.48785 1.73601 7.50911 1.73263L7.2731 0.25131C6.78485 0.329102 6.41361 0.614693 6.1004 0.929113C5.79053 1.24018 5.44645 1.67598 5.0398 2.18885L6.21517 3.12079ZM10.1184 2.18885C9.71175 1.67599 9.36767 1.24018 9.05781 0.929114C8.7446 0.614694 8.37336 0.329102 7.88511 0.25131L7.6491 1.73263C7.67036 1.73601 7.7629 1.75462 7.9951 1.98773C8.23065 2.22418 8.51362 2.57921 8.94303 3.12079L10.1184 2.18885ZM7.50911 1.73263C7.53264 1.72888 7.55598 1.72705 7.5791 1.72705V0.227051C7.47665 0.227051 7.3744 0.235169 7.2731 0.25131L7.50911 1.73263ZM7.5791 1.72705C7.60223 1.72705 7.62556 1.72888 7.6491 1.73263L7.88511 0.25131C7.7838 0.23517 7.68156 0.227051 7.5791 0.227051V1.72705ZM8.3291 1.72705V0.977051H6.8291V1.72705H8.3291Z" fill="white"/>
</g>
</svg>
